<svg xmlns="http://www.w3.org/2000/svg" fill="none" viewBox="0 0 21 18">
  <path fill="#fff" d="M17.92 17.33H3.08A2.6 2.6 0 0 1 .5 14.75V3.25A2.6 2.6 0 0 1 3.08.67h14.84a2.6 2.6 0 0 1 2.58 2.58v11.5a2.6 2.6 0 0 1-2.58 2.58Zm-14.84-15c-.5 0-.91.42-.91.92v11.5c0 .5.41.92.91.92h14.84c.5 0 .91-.42.91-.92V3.25c0-.5-.41-.92-.91-.92H3.08Z"/>
  <path fill="#fff" d="M2.86 15.25a.7.7 0 0 1-.6-.38c-.2-.38-.1-.89.22-1.19L8.6 8.65c.55-.47 1.25-.43 1.7.12l1.63 2 5.78-5.34c.31-.3.73-.21.97.17s.17.89-.14 1.18l-5.74 5.38c-.55.5-1.32.5-1.77-.08l-1.63-2-6.16 5.04a.61.61 0 0 1-.38.13ZM5.09 6.5a1.25 1.25 0 1 0 0-2.5 1.25 1.25 0 0 0 0 2.5Z"/>
</svg>
