<svg xmlns="http://www.w3.org/2000/svg" aria-hidden="true" overflow="hidden" style="position:absolute;width:0;height:0">
  <defs>
    <symbol id="icon-burger" viewBox="0 0 43 32">
      <path fill="var(--color1, #fff)" d="M0 0h42.67v2.37H0zm0 14.23h42.67v2.37H0zm0 14.2h42.67v2.38H0z"/>
    </symbol>
    <symbol id="icon-mobile-close" viewBox="0 0 32 32">
      <path fill="var(--color1, #fff)" d="m2.64 0 28.28 28.28-1.56 1.58L1.08 1.56z"/>
      <path fill="var(--color1, #fff)" d="M0 28.76 28.28.48l1.56 1.56-28.28 28.3z"/>
    </symbol>
    <symbol id="icon-filter" viewBox="0 0 42 32">
      <path fill="none" stroke="var(--color2, #666)" stroke-width="3.2" d="M0 8.74h22.69m3.77 0H41.6M28.06 2.75v11.36M0 23.84h11.36m1.6-5.95v11.36m5.95-5.41H41.6"/>
    </symbol>
    <symbol id="icon-add-simple" viewBox="0 0 32 32">
      <path fill="none" stroke="var(--color1, #fff)" stroke-linecap="round" stroke-linejoin="bevel" stroke-width="2.29" d="M29.71 16H2.28M16 29.71V2.28"/>
    </symbol>
    <symbol id="icon-gear-pistol" viewBox="0 0 32 32">
      <path fill="var(--color3, #1f292f)" d="M16 0a16 16 0 1 1 0 32 16 16 0 0 1 0-32z"/>
      <path fill="var(--color1, #fff)" d="m22.86 17.78-.47.8.53.32.47-.81.54.31-.46.8.53.32.47-.82.53.31-.47.81.54.31.47-.8.8.46-.78 1.35-13.93-8.05.78-1.35 10.45 6.04zm-11.54-4.14 3.21 1.85-.3.54-2.7-1.55a.62.62 0 0 1-.21-.85zm4.54 6.22a.71.71 0 0 1-.34-.8.8.8 0 0 1 .13-.26l.65-.85 1.96 1.13.03.02c-.45.34-.93.44-1.42.27l-.2.59c.71.24 1.44.09 2.07-.42.18.28.27.63.21.98l-.16 1.04-2.93-1.7zm6.02 9.45a.27.27 0 0 1-.27 0l-3.07-1.78 1.02-6.93c.02-.09.02-.19.02-.29 0-.75-.4-1.4-1-1.76h-.01l-3.82-2.21.32-.53 5.62 3.24-.3.53.52.32.32-.54 3.24 1.87c-.92.14-1.63.87-1.74 1.8l-.71 6.06a.27.27 0 0 1-.14.22z" opacity=".85"/>
      <path fill="var(--color1, #fff)" d="m20.86 27.42.53.31-.3.55-.54-.32.31-.53zm-7.56-16.6.53.3-.3.54-.53-.3.3-.54zm12.33 7.12.53.3-.31.54-.53-.3.3-.54z" opacity=".85"/>
      <path fill="var(--color1, #fff)" stroke="var(--color3, #1f292f)" stroke-width=".44" d="m23.91 13.35.03.13.12.03 2.38.7V16l-2.38.7-.16.05v.16c0 .18-.03.3-.1.48l-1.63-1.52c.63-3.84-2.72-7.4-7.06-7.4-3.91 0-7.16 2.97-7.16 6.63 0 4.18 4.01 7.23 8.48 6.53L17.9 23l-.19.06-.58.16-.11.03-.04.1-.87 2.2h-2l-.92-2.2-.12-.03c-1-.2-1.9-.62-2.82-1.15l-.1-.05-.1.04-2.3 1.01-1.38-1.28 1.08-2.1.06-.1-.07-.11a9.16 9.16 0 0 1-1.12-2.53l-.01-.07-.03-.11-.12-.05-2.39-.8v-1.8l2.4-.8.11-.05.03-.12c.23-.98.62-1.85 1.14-2.62l-.01.03.07-.11-.06-.12-1.07-2.09 1.37-1.18 2.3 1.01.1.05.1-.05A9.51 9.51 0 0 1 13.07 7l.12-.02.04-.11.87-2.2h2l.76 2.19.04.12.13.02c1.02.21 1.92.53 2.82 1.05l.1.05.1-.04 2.3-1.02 1.38 1.28-1.08 2.1-.06.12.07.1a8.44 8.44 0 0 1 1.25 2.7z" opacity=".85"/>
    </symbol>
    <symbol id="icon-gear-wench" viewBox="0 0 32 32">
      <path fill="var(--color3, #1f292f)" d="M16 0a16 16 0 1 1 0 32 16 16 0 0 1 0-32z"/>
      <path fill="var(--color1, #fff)" stroke="var(--color3, #1f292f)" stroke-width=".44" d="m23.91 13.35.03.13.12.03 2.38.7V16l-2.38.7-.16.05v.16c0 .18-.03.3-.1.48l-1.63-1.52c.63-3.84-2.72-7.4-7.06-7.4-3.91 0-7.16 2.97-7.16 6.63 0 4.18 4.01 7.23 8.48 6.53L17.9 23l-.19.06-.58.16-.11.03-.04.1-.87 2.2h-2l-.92-2.2-.12-.03c-1-.2-1.9-.62-2.82-1.15l-.1-.05-.1.04-2.3 1.01-1.38-1.28 1.08-2.1.06-.1-.07-.11a9.16 9.16 0 0 1-1.12-2.53l-.01-.07-.03-.11-.12-.05-2.39-.8v-1.8l2.4-.8.11-.05.03-.12c.23-.98.62-1.85 1.14-2.62l-.01.03.07-.11-.06-.12-1.07-2.09 1.37-1.18 2.3 1.01.1.05.1-.05A9.51 9.51 0 0 1 13.07 7l.12-.02.04-.11.87-2.2h2l.76 2.19.04.12.13.02c1.02.21 1.92.53 2.82 1.05l.1.05.1-.04 2.3-1.02 1.38 1.28-1.08 2.1-.06.12.07.1a8.44 8.44 0 0 1 1.25 2.7z" opacity=".85"/>
      <path fill="var(--color1, #fff)" stroke="var(--color3, #1f292f)" stroke-width=".44" d="m19.2 16.61-.09.15.13.11 6.8 6.3c.5.55.48 1.46-.08 1.9h-.01l-.01.01c-.6.56-1.51.56-2.14 0l-6.9-6.38-.14.04a4.56 4.56 0 0 1-4.65-.82 3.7 3.7 0 0 1-1.27-3.6v.02l1.8 1.57c.45.47 1.13.7 1.78.7s1.31-.22 1.77-.7c1.03-.84 1-2.38 0-3.3l-1.77-1.64a4.57 4.57 0 0 1 4.09 1.36 3.72 3.72 0 0 1 .67 4.3l.01-.02z" opacity=".85"/>
    </symbol>
    <symbol id="icon-gear-builds" viewBox="0 0 31 32">
      <path fill="var(--color3, #1f292f)" d="M15.57.43a15.57 15.57 0 1 1 0 31.14 15.57 15.57 0 0 1 0-31.14z"/>
      <path fill="var(--color1, #fff)" stroke="var(--color3, #1f292f)" stroke-width=".43" d="m23.27 13.42.02.12.12.04 2.32.68v1.75l-2.32.68-.15.04v.17c0 .17-.04.3-.1.46l-1.59-1.47c.61-3.75-2.65-7.2-6.87-7.2-3.8 0-6.96 2.88-6.96 6.44 0 4.07 3.9 7.03 8.24 6.36l1.44 1.32-.18.06-.57.15-.1.04-.04.08-.85 2.16h-1.96l-.89-2.16-.1-.01A8.94 8.94 0 0 1 9.97 22l-.09-.05-.1.04-2.23.99-1.35-1.25 1.05-2.04.06-.1-.07-.1a8.92 8.92 0 0 1-1.08-2.47l-.02-.07-.02-.11L6 16.8l-2.32-.78v-1.76L6 13.48l.12-.05.02-.1c.22-.97.6-1.81 1.12-2.56l-.02.03.07-.1-.06-.12L6.2 8.55 7.54 7.4l2.24.98.1.05.1-.05a9.08 9.08 0 0 1 2.74-1.13l.11-.02.05-.1.84-2.15h1.95l.74 2.13.04.12.12.02c1 .2 1.87.52 2.75 1.02l.09.05.1-.04 2.23-.98 1.35 1.24-1.05 2.04-.06.11.07.1c.56.82 1 1.74 1.21 2.64z" opacity=".85"/>
      <path fill="var(--color4, #4d5a63)" d="M24.04 23.8c.3-.31.53-.64.69-.95l.8.76c.16.2-.05.7-.48 1.16-.44.45-.94.68-1.13.53l-.81-.76c.31-.18.62-.43.93-.74zm-12.88-9.44c-.38-.34-.03-1.31.77-2.15.8-.84 1.74-1.23 2.12-.86.37.34.02 1.31-.77 2.15-.8.84-1.76 1.22-2.12.86z" opacity=".85"/>
      <path fill="var(--color1, #fff)" d="M13.28 13.5c-.8.84-1.76 1.22-2.12.87l10.76 10.3c.23.22.69.15 1.19-.13a4.14 4.14 0 0 0 1.62-1.69c.26-.52.32-.98.08-1.21l-10.75-10.3c.36.35.02 1.32-.78 2.16z" opacity=".85"/>
      <path fill="var(--color4, #4d5a63)" d="M23.02 22.83c.8-.83 1.15-1.8.78-2.16l.34.33c.23.22.17.7-.09 1.21-.2.36-.42.68-.7.95a4.1 4.1 0 0 1-.9.72h-.02c-.5.3-.96.37-1.19.15l-.34-.32c.38.34 1.33-.04 2.12-.87z" opacity=".85"/>
      <path fill="var(--color4, #4d5a63)" d="M22.02 21.87c.8-.84 1.14-1.8.78-2.16l.33.32c.23.23.18.7-.1 1.21a4.1 4.1 0 0 1-1.59 1.68h-.01c-.51.3-.97.36-1.2.14l-.34-.31c.37.35 1.32-.04 2.13-.87z" opacity=".85"/>
    </symbol>
    <symbol id="icon-pistol" viewBox="0 0 32 32">
      <path fill="var(--color3, #1f292f)" d="M16 0a16 16 0 1 1 0 32 16 16 0 0 1 0-32z"/>
      <path fill="var(--color1, #fff)" d="m19.81 12.5-.24.89.59.15.24-.88.59.16-.24.88.58.16.24-.9.6.17-.25.89.6.15.23-.89.89.24-.4 1.48-15.28-4.1.4-1.47 11.46 3.07zm-12-1.02 3.51.96-.15.6-2.94-.8a.61.61 0 0 1-.43-.75zm5.9 4.73a.71.71 0 0 1-.48-.94l.39-.97 2.16.58.03.02c-.33.43-.76.64-1.28.6l-.03.6a2 2 0 0 0 1.85-.91c.25.23.41.53.45.87l.12 1.01-3.21-.86zm8.12 7.42a.26.26 0 0 1-.25.05l-3.37-.9-.8-6.79a2 2 0 0 0-1.46-1.68h-.01l-4.18-1.14.15-.58 6.17 1.65-.15.59.58.16.16-.59 3.55.95a2 2 0 0 0-1.19 2.15v-.01l.89 5.9v.04c0 .08-.03.15-.09.2z" opacity=".85"/>
      <path fill="var(--color1, #fff)" d="m20.38 22.1.6.16-.16.58-.59-.16.15-.58zM8.96 8.34l.59.15-.16.59-.59-.16.16-.58zm13.52 3.62.59.16-.16.58-.59-.16.16-.58z" opacity=".85"/>
    </symbol>
    <symbol id="icon-thermometer" viewBox="0 0 32 32">
      <path fill="var(--color3, #1f292f)" d="M16 0a16 16 0 1 1 0 32 16 16 0 0 1 0-32z"/>
      <path fill="var(--color1, #fff)" d="m17.07 16.09-.2 1h.78c.24 0 .42-.2.42-.42v-.92h-.6a.4.4 0 0 0-.4.33z" opacity=".85"/>
      <path fill="var(--color1, #fff)" d="M14.02 8.89c-1.01 0-1.85.72-2.04 1.67v.02L10.03 20.6a2.09 2.09 0 0 0 2.04 2.52h2.67c1.35-.03 1.72-1.83.52-2.4l.98-4.8c.12-.58.62-1 1.22-1h.82l1.27-6.03h-5.54zm.37 3.43a.42.42 0 0 1-.42-.42c.03-.55.81-.55.84 0 0 .23-.19.42-.42.42zm1.66 0a.42.42 0 0 1-.41-.42c.02-.55.81-.55.83 0 0 .23-.18.42-.42.42zm5.87-3.28a.42.42 0 0 0-.32-.15h-1.2l-1.25 6.03h1.33c.2 0 .37-.14.42-.33l1.1-5.2a.41.41 0 0 0-.09-.36v.01z" opacity=".85"/>
    </symbol>
    <symbol id="icon-down-arrow" viewBox="0 0 32 32">
      <path d="M14.92 26.08a1.32 1.32 0 0 0 2.16 0l12-17.32A1.32 1.32 0 0 0 28 6.68H4a1.32 1.32 0 0 0-1.08 2.08l12 17.32z" opacity=".5"/>
    </symbol>
    <symbol id="icon-search" viewBox="0 0 32 32">
      <path fill="transparent" stroke="#000000" stroke-linecap="round" stroke-linejoin="bevel" stroke-width="2.4" d="M18.4 22.88a9.34 9.34 0 1 0 0-18.69 9.34 9.34 0 0 0 0 18.67zm-6.51-2.66-6.51 6.52"/>
    </symbol>
    <symbol id="icon-close-sign" viewBox="0 0 32 32">
      <path stroke-linecap="round" stroke-linejoin="bevel" stroke-width="1.66" d="m20.81 20.81-10.4-10.4m0 10.4 10.4-10.4"/>
    </symbol>
    <symbol id="icon-star-filled" viewBox="0 0 32 32">
      <path fill="var(--color5, #e1cd18)" d="m28.38 11.04-7.93-1.15-3.55-7.2a1 1 0 0 0-1.8 0l-3.55 7.2-7.93 1.15a1 1 0 0 0-.55 1.7l5.75 5.6-1.36 7.9a1 1 0 0 0 1.45 1.05H8.9l7.1-3.72 7.1 3.73c.2.1.42.12.64.1a1 1 0 0 0 .8-1.17v.01l-1.36-7.9 5.76-5.6a1 1 0 0 0-.55-1.7z"/>
    </symbol>
    <symbol id="icon-star-outline" viewBox="0 0 32 32">
      <path stroke="var(--color5, #e1cd18)" stroke-width="2.13" d="m19.48 10.35.25.5.56.1 7.8 1.13-5.65 5.5-.4.38.1.56 1.33 7.76L16 22.36l-.49.25-6.98 3.67 1.33-7.76.1-.56-.42-.38-5.63-5.5 8.36-1.22.25-.51L16 3.29l3.48 7.06z" opacity=".5"/>
    </symbol>
    <symbol id="icon-post-vieweye" viewBox="0 0 32 32">
      <path fill="none" stroke-linecap="round" stroke-linejoin="round" stroke-width="2" d="M29.34 16.16 25.86 20a13.31 13.31 0 0 1-19.71.01h-.01l-3.48-3.85 3.1-3.7a13.32 13.32 0 0 1 20.46-.02l.02.02 3.1 3.7z"/>
      <path fill="none" stroke-linecap="round" stroke-linejoin="bevel" stroke-width="2" d="M16.12 19h.06a3.4 3.4 0 0 0 3.4-3.31h0a3.4 3.4 0 0 0-3.4-3.35h-.06 0-.06a3.4 3.4 0 0 0-3.4 3.34h0a3.4 3.4 0 0 0 3.46 3.34z"/>
    </symbol>
    <symbol id="icon-post-message" viewBox="0 0 32 32">
      <path fill="none" stroke-linecap="round" stroke-linejoin="round" stroke-width="2.29" d="M26.51 4.34H5.48s0 0 0 0A2.67 2.67 0 0 0 2.81 7v12.1a2.68 2.68 0 0 0 2.67 2.62s0 0 0 0h2.18l3.08 5.35a1.15 1.15 0 0 0 1.96 0h0l3.12-5.34h10.65s0 0 0 0a2.67 2.67 0 0 0 2.67-2.65V7a2.67 2.67 0 0 0-2.62-2.66h0z"/>
    </symbol>
    <symbol id="icon-cursor-hand" viewBox="0 0 32 32">
      <path d="M10.9 6.2a1.17 1.17 0 0 1 1.43.83l2.53 9.47a.79.79 0 0 0 1.54-.2.76.76 0 0 0-.03-.22l-1.03-3.82.14-.04c.48-.14.95-.28 1.24-.28.21-.03.49.01.75.08.14.03.28.15.35.42l.82 3.03a.79.79 0 0 0 1.54-.2.78.78 0 0 0-.02-.2l-.64-2.37.15-.05a2.9 2.9 0 0 1 1.09-.23c.2.02.54.2.91.45l.4.32.56 2.03a.78.78 0 1 0 1.5-.42l-.41-1.5.53-.14a1.57 1.57 0 0 1 1.95 1.24v.01l.7 4.23c.07.55.05 1.1-.1 1.63l-1.1 4.26a.78.78 0 0 1-.56.55l-9.53 2.55a.77.77 0 0 1-.8-.24l-2.85-3.23-5.5-5.3a.8.8 0 1 1 .98-1.29l4.6 2.67c.12.07.26.11.41.11a.78.78 0 0 0 .75-1v.01L10.06 7.65a1.17 1.17 0 0 1 .83-1.45zm4.04 4.54-1.1-4.1a2.75 2.75 0 1 0-5.28 1.44v-.02l2.64 9.87-2.98-1.7a2.37 2.37 0 0 0-2.84 3.76v-.01l5.45 5.29 2.82 3.17a2.35 2.35 0 0 0 2.38.69h-.02l9.53-2.54a2.36 2.36 0 0 0 1.67-1.65v-.02l1.12-4.26c.2-.73.23-1.51.1-2.27l-.69-4.21a3.14 3.14 0 0 0-3.91-2.51l.02-.01-.88.24-.4-.3c-.38-.29-1-.66-1.62-.73s-1.33.14-1.8.3l-.19.07a2.03 2.03 0 0 0-1.11-.73 4.03 4.03 0 0 0-1.23-.14c-.5.03-1.14.2-1.6.36l-.08.01z"/>
    </symbol>
    <symbol id="icon-share" viewBox="0 0 32 32">
      <path fill="var(--color6, #198ccd)" d="M17.33 9.22V3.46l6.29 6.27 5.02 5.02-5.12 4.27-6.2 5.16v-5.65C6.49 17.73 2.68 24 2.68 24c0-3.92.32-7.98 3.4-11.06 3.58-3.58 8.76-3.84 11.26-3.72z"/>
    </symbol>
    <symbol id="icon-arrow-down" viewBox="0 0 30 32">
      <path fill="var(--color6, #198ccd)" d="M15.56 26.84a.68.68 0 0 1-.95 0L8.96 21.2a.67.67 0 1 1 .94-.94l4.52 4.51V5.63l-.01-.1a.68.68 0 1 1 1.34.1v19.13l4.52-4.51c.12-.12.29-.2.47-.2a.67.67 0 0 1 .47 1.14l-5.65 5.65z"/>
    </symbol>
    <symbol id="icon-arrow-right" viewBox="0 0 34 32">
      <path fill="var(--color2, #666)" d="M10.62 26.03a1 1 0 0 1-.08-1.29l.08-.12L19.26 16l-8.64-8.62a1 1 0 0 1-.08-1.3l.08-.13a1 1 0 0 1 1.33-.08l.1.08 9.33 9.35c.36.34.38.91.1 1.28l-.1.13-9.33 9.34a1 1 0 0 1-1.43 0z"/>
    </symbol>
    <symbol id="icon-delete" viewBox="0 0 32 32">
      <path fill="var(--color7, #c41616)" d="M25.84 11.63c.56.05.96.53.93 1.07 0 .1-.74 9.04-1.15 12.8-.26 2.32-1.8 3.75-4.12 3.78a290.18 290.18 0 0 1-10.75 0h.27C8.78 29.23 7.25 27.79 7 25.5a598.53 598.53 0 0 1-1.14-12.88 1 1 0 0 1 .91-.99c.55-.01 1.03.37 1.08.91l.62 7.32.07.72.45 4.7c.16 1.3.84 1.97 2.08 2 3.34.06 6.73.08 10.4 0 1.3-.02 2.03-.67 2.17-2 .42-3.73 1.12-12.64 1.14-12.74.06-.51.49-.9 1.02-.9h.05zm-6.72-8.96c1.23 0 2.3.82 2.62 2l.34 1.68c.11.56.6.96 1.15.96h4.39a1 1 0 0 1 0 2H5a1 1 0 0 1 0-2h4.5a1.2 1.2 0 0 0 1.02-.95l.32-1.62a2.73 2.73 0 0 1 2.64-2.08h5.63zm0 2h-5.63a.7.7 0 0 0-.69.51l-.32 1.57c-.03.2-.08.39-.16.56h7.97a3.01 3.01 0 0 1-.16-.54v-.02l-.32-1.61a.74.74 0 0 0-.69-.48z" opacity=".5"/>
    </symbol>
    <symbol id="icon-plus-bold" viewBox="0 0 30 32">
      <path fill="var(--color6, #198ccd)" d="M18.67 3.56H11.2v8.7H2.5v7.47h8.7v8.7h7.47v-8.7h8.7v-7.46h-8.7v-8.7z"/>
    </symbol>
    <symbol id="icon-users-add" viewBox="0 0 32 32">
      <path fill="none" stroke="var(--color6, #198ccd)" stroke-linecap="round" stroke-linejoin="round" stroke-width="1.6" d="m4 28 1.06-3.84c1.74-6.3 6.33-9.49 10.94-9.49"/>
      <path fill="none" stroke="var(--color6, #198ccd)" stroke-linecap="round" stroke-linejoin="bevel" stroke-width="1.6" d="M16 14.64h.33a6.67 6.67 0 1 0-.35-13.33H16a6.67 6.67 0 0 0-.02 13.33H16z"/>
      <path fill="none" stroke="var(--color6, #198ccd)" stroke-linecap="round" stroke-linejoin="round" stroke-width="1.6" d="M22.67 30.67a6.67 6.67 0 1 0 0-13.34v0a6.67 6.67 0 1 0 0 13.34v0zM20 24h5.33m-2.66-2.67v5.34"/>
    </symbol>
    <symbol id="icon-checkbox-checked" viewBox="0 0 32 32">
      <path fill="var(--color8, #7abf51)" d="M4.92 0h22.16C29.8 0 32 2.2 32 4.92v22.16C32 29.8 29.8 32 27.08 32H4.92A4.92 4.92 0 0 1 0 27.08V4.92C0 2.2 2.2 0 4.92 0z"/>
      <path fill="none" stroke="var(--color1, #fff)" stroke-linecap="round" stroke-linejoin="round" stroke-width="2.46" d="m8.62 17.23 5.53 5.54 9.23-11.08"/>
    </symbol>
    <symbol id="icon-dot-in-box" viewBox="0 0 32 32">
      <path fill="var(--color6, #198ccd)" d="M4.92 0h22.16C29.8 0 32 2.2 32 4.92v22.16C32 29.8 29.8 32 27.08 32H4.92A4.92 4.92 0 0 1 0 27.08V4.92C0 2.2 2.2 0 4.92 0z"/>
      <path fill="var(--color6, #198ccd)" stroke="var(--color1, #fff)" stroke-width="4.92" d="M16 8.62a7.39 7.39 0 1 1 0 14.77A7.39 7.39 0 0 1 16 8.6z"/>
    </symbol>
    <symbol id="icon-crop" viewBox="0 0 30 32">
      <path fill="var(--color2, #666)" d="M6.47 2.17c.5 0 .92.4.92.9v24h24a.94.94 0 0 1 0 1.85h-3.7v3.7a.94.94 0 0 1-1.84 0v-3.7H6.45a.94.94 0 0 1-.91-.93V8.62h-3.7a.92.92 0 1 1 0-1.85h3.7V3.05c0-.5.4-.9.9-.9h.03zm4.6 5.54v-.03c0-.5.41-.91.92-.91h14.79c.5.01.91.43.91.93v14.77l.02.15a.93.93 0 1 1-1.86-.15V8.61H11.99a.9.9 0 0 1-.91-.9v-.03z"/>
    </symbol>
    <symbol id="icon-preloader" viewBox="0 0 30 32">
      <path fill="var(--color6, #198ccd)" d="M17.7 2.06a2.06 2.06 0 1 1-4.1 0 2.06 2.06 0 0 1 4.1 0zM11.94 3.3a2.06 2.06 0 1 1-4.12 0 2.06 2.06 0 0 1 4.12 0zM7 6.8a1.85 1.85 0 1 1-3.7 0 1.85 1.85 0 0 1 3.7 0zm-2.89 4.94a1.85 1.85 0 1 1-3.7 0 1.85 1.85 0 0 1 3.7 0zM3.3 17.7a1.65 1.65 0 1 1-3.3 0 1.65 1.65 0 0 1 3.3 0zm1.65 5.36a1.65 1.65 0 1 1-3.3 0 1.65 1.65 0 0 1 3.3 0zm3.7 4.74a1.44 1.44 0 1 1-2.88 0 1.44 1.44 0 0 1 2.88 0zM14 29.86a1.44 1.44 0 1 1-2.88 0 1.44 1.44 0 0 1 2.88 0zm5.76.21a1.23 1.23 0 1 1-2.46 0 1.23 1.23 0 0 1 2.46 0z"/>
      <path fill="var(--color1, #fff)" d="M25.12 27.6a1.23 1.23 0 1 1-2.47 0 1.23 1.23 0 0 1 2.47 0zm3.7-4.33a1.03 1.03 0 1 1-2.05 0 1.03 1.03 0 0 1 2.05 0zm1.66-5.36a1.03 1.03 0 1 1-2.06 0 1.03 1.03 0 0 1 2.06 0zm-.83-5.96a.82.82 0 1 1-1.64 0 .82.82 0 0 1 1.64 0zM26.77 7a.82.82 0 1 1-1.65 0 .82.82 0 0 1 1.65 0zm-4.94-3.5a.62.62 0 1 1-1.23 0 .62.62 0 0 1 1.23 0z"/>
    </symbol>
    <symbol id="icon-text-area" viewBox="0 0 30 32">
      <path d="M.07 27.57 27 .64l1.32 1.35L1.4 28.89zm11.58.15 15.5-15.5 1.33 1.35-15.5 15.5zm9.87 2.07 7.63-7.62 1.18 1.16-7.64 7.63z"/>
    </symbol>
    <symbol id="icon-facebook" viewBox="0 0 31 32">
      <path fill="var(--color1, #fff)" d="M17.09 27.48V17.02h3.52l.52-4.1H17.1v-2.6c0-1.18.33-1.99 2.03-1.99h2.14V4.7a29.63 29.63 0 0 0-3.15-.17c-3.11 0-5.25 1.9-5.25 5.4v3H9.35v4.1h3.5v10.46h4.24z"/>
    </symbol>
    <symbol id="icon-twitter" viewBox="0 0 30 32">
      <path fill="var(--color1, #fff)" d="M30.02 7.03c-1.07.47-2.2.79-3.4.93a5.97 5.97 0 0 0 2.6-3.22v-.05a11.92 11.92 0 0 1-3.74 1.44 5.9 5.9 0 0 0-10.08 5.43v-.04A16.78 16.78 0 0 1 3.21 5.36l-.02-.03A5.9 5.9 0 0 0 5 13.24l.03.02c-1-.04-1.91-.31-2.71-.77l.03.02v.08a5.92 5.92 0 0 0 4.71 5.78h.04a5.8 5.8 0 0 1-2.68.11 5.92 5.92 0 0 0 5.52 4.12 11.8 11.8 0 0 1-8.81 2.43h.06a16.57 16.57 0 0 0 9.06 2.67c10.88 0 16.84-9 16.84-16.82l-.01-.76a12.14 12.14 0 0 0 2.91-3.02l.03-.05z"/>
    </symbol>
    <symbol id="icon-google-plus" viewBox="0 0 32 32">
      <path fill="var(--color1, #fff)" d="m27.48 14.7-.01-2.54h-2.52l-.03 2.53-2.53.03v2.52l2.53.03.01 2.53h2.54l.01-2.53 2.54-.03v-2.52c-.84 0-1.7 0-2.54-.03zm-16.56 0v3.04c1.7.07 3.39.04 5.1.07-.76 3.75-5.87 4.97-8.57 2.52a5.69 5.69 0 0 1 .23-8.88h.01c2.02-1.62 4.9-1.22 6.91.17.8-.73 1.54-1.5 2.26-2.33a8.98 8.98 0 0 0-5.91-2.2h-.03a8.87 8.87 0 0 0-8.86 8.43v.02l-.01.47a8.9 8.9 0 0 0 5.57 8.25l.06.02c3.47 1.33 7.91.42 10.11-2.69 1.47-1.95 1.8-4.49 1.62-6.87a694.72 694.72 0 0 0-8.73 0h.23z"/>
    </symbol>
  </defs>
</svg>
